<?xml version="1.0" encoding="utf-8"?>
<!-- Generator: Adobe Illustrator 26.0.1, SVG Export Plug-In . SVG Version: 6.00 Build 0)  -->
<svg version="1.1" id="Layer_1" xmlns="http://www.w3.org/2000/svg" xmlns:xlink="http://www.w3.org/1999/xlink" x="0px" y="0px"
	 viewBox="0 0 169 30" style="enable-background:new 0 0 169 30;" xml:space="preserve">
<style type="text/css">
	.st0{fill:#FFFFFF;}
	.st1{fill:#030A1C;}
	.st2{fill:#CA913F;}
</style>
<g>
	<g>
		<polygon class="st2" points="14,15.2 18,8.3 14,8.3 		"/>
		<polygon class="st2" points="8.5,14.4 12.7,17.3 12.7,12.1 8.5,12.1 		"/>
		<path class="st2" d="M29.1,15.3c0,0.5,0,1-0.1,1.5c0,0.3-0.1,0.7-0.1,1c-0.1,0.4-0.2,0.9-0.3,1.3c-0.1,0.4-0.2,0.8-0.4,1.3
			c-0.3,0.8-0.7,1.6-1.1,2.4c-0.3,0.5-0.5,0.9-0.8,1.3c-0.5,0.7-1.1,1.4-1.8,2c-0.7,0.6-1.4,1.2-2.2,1.7c-0.6,0.4-1.2,0.7-1.8,0.9
			c-0.6,0.2-1.1,0.4-1.7,0.6c-0.3,0.1-0.7,0.2-1,0.2c-0.3,0.1-0.6,0.1-1,0.2c-0.4,0-0.7,0.1-1.1,0.1h0c-4.9,0-9.3-2.5-11.9-6.3
			c0.5-0.4,1.1-0.9,1.6-1.3c0.3,0.4,0.6,0.8,1,1.2c0.3,0.4,0.7,0.7,1.1,1.1c0.4,0.4,0.7,0.7,1.2,1c0-1.6,0-3.2,0-4.8
			c0,0,0-0.1,0-0.1v-0.1l0.2,0.1l0,0c0,0,0,0,0,0c0.4,0.3,0.7,0.5,1.1,0.8c0.6,0.4,1.2,0.9,1.8,1.3l0,0c0.2,0.1,0.3,0.2,0.5,0.4
			c0,0,0,0,0,0l0.1,0c0.1,0,0.1,0.1,0.2,0.1h0l0,0l0.1,0.1c0,0.1,0.1,0.1,0.1,0.2v0.2c0,1,0,2.1,0,3.1c0,0.1,0,0.1,0,0.2
			c0,0,0,0,0,0.1c0,0,0,0,0,0v0.1c0,0,0,0,0,0c0,0,0,0,0,0c0,0,0.1,0,0.2,0c0,0,0,0,0,0c0.2,0,0.4,0.1,0.6,0.1c0.2,0,0.3,0,0.5,0.1
			v0c0-0.1,0-0.1,0-0.2c0-0.8,0-1.7,0-2.5v-0.3l0.2-0.2h0c0.3-0.5,0.7-1.1,1-1.6c0.5-0.8,1-1.6,1.5-2.4c0.3-0.5,0.7-1.1,1-1.6
			l0.2-0.3l0,0.2c0,0,0,0,0,0.1l0,1.5c0,0.2,0,0.3,0,0.5c0,2.2,0,4.4,0,6.7v0.2c0.1,0,0.1,0,0.2-0.1c0,0,0,0,0,0c0,0,0,0,0,0
			c0,0,0.1,0,0.1,0c0,0,0,0,0,0c0.2-0.1,0.5-0.2,0.9-0.3v-0.2c0-1.4,0-2.7,0-4.1c0-2.1,0-4.2,0-6.3v-0.3l0.1-0.1h0l0,0
			c0.2-0.3,0.4-0.7,0.6-1c0.2-0.3,0.3-0.6,0.5-0.9c0.6-0.9,1.1-1.9,1.7-2.8c0.2-0.3,0.4-0.6,0.6-0.9c0,0,0,0,0,0l0,0l0,0l0.2-0.2V10
			c0,1.2,0,2.3,0,3.5c0,3.6,0,7.3,0,10.9c0,0,0,0.1,0,0.2c0.1,0,0.1-0.1,0.1-0.1c0.3-0.3,0.7-0.6,1-0.9c0.3-0.3,0.5-0.6,0.8-0.9
			c0.4-0.4,0.7-0.9,1-1.4c0.3-0.5,0.6-1.1,0.9-1.7c0.3-0.6,0.5-1.2,0.7-1.8c0.1-0.3,0.2-0.7,0.3-1c0.1-0.2,0.1-0.5,0.1-0.7
			c0.1-0.3,0.1-0.6,0.2-1c0,0,0,0,0-0.1c0.1-0.8,0.1-1.5,0.1-2.3c-0.1-0.9-0.2-1.8-0.5-2.6c-0.2-0.5-0.3-1.1-0.6-1.6
			c-0.1-0.2-0.2-0.4-0.3-0.5l-0.3-0.6l0.2,0.3c0,0,0,0,0,0c0.2,0.3,0.4,0.5,0.6,0.8c0.3,0.4,0.5,0.9,0.7,1.3c0.2,0.5,0.4,1,0.6,1.5
			c0.2,0.6,0.3,1.1,0.4,1.7C29,13.6,29,14,29,14.4C29,14.7,29.1,15,29.1,15.3z"/>
		<path class="st2" d="M18.4,4.9c-0.3,0-0.7,0-1.3,0.1c0,0,0,0,0,0c0,0,0,0,0,0c0,0,0,0,0,0c-0.4,0-0.8,0.1-1.3,0.1
			c-0.2,0-0.5,0.1-0.7,0.1c-0.3,0.1-0.6,0.1-0.9,0.2c-0.6,0.1-1.1,0.3-1.7,0.5c-0.5,0.2-1.1,0.4-1.6,0.6c-0.1,0-0.2,0.1-0.3,0.1
			c0,0,0,0,0,0c0-0.1,0.3-1.4,0.6-2.2c0,0,0,0,0-0.1c0,0,0,0,0,0c0.1-0.3,0.2-0.6,0.4-0.8C11.9,3,12.3,2.4,12.8,2
			C12.8,2,12.9,1.9,13,1.9c0.2-0.1,0.5-0.1,0.7-0.2c0.3-0.1,0.6-0.1,0.9-0.2c0,0,0.1,0,0.1,0c0.3,0,0.6,0,0.9,0.1
			c0.2,0.1,0.5,0.1,0.7,0.2c0,0,0,0,0,0c0,0,0.1,0,0.1,0.1c0,0,0.1,0,0.1,0.1c0,0,0,0,0,0c1,0.4,1.8,0.9,1.8,0.9c0,0,0,0,0,0
			c0-0.1-0.1-0.2-0.2-0.3c-0.4-0.5-0.8-0.9-1.2-1.1c-0.4-0.2-0.6-0.3-0.6-0.3l0,0l0.1,0c1.4-0.1,2.7,0,4.1,0.1c0,0-0.1,0-0.1-0.1
			C20.6,1.1,20.5,1,20.4,1c-0.3-0.1-0.6-0.2-0.9-0.3c-0.3-0.1-0.5-0.1-0.8-0.2c-0.3-0.1-0.6-0.1-0.9-0.2c-0.2,0-0.4-0.1-0.7-0.1
			c-0.2,0-0.4,0-0.6,0c-0.2,0-0.3,0-0.5,0c0,0,0,0-0.1,0c-0.5,0-0.9,0-1.4,0.1c-0.2,0-0.5,0.1-0.7,0.1c-0.2,0-0.4,0.1-0.6,0.1
			c-0.3,0-0.6,0.1-0.8,0.1c-0.4,0.1-0.7,0.2-1.1,0.3c-0.8,0.3-1.7,0.6-2.4,1C8.6,2,8.4,2.1,8.3,2.2c0,0-0.1,0.1-0.1,0.1
			c0,0-0.1,0.1-0.1,0.1c-0.1,0-0.2,0.1-0.2,0.2c-0.1,0-0.1,0.1-0.2,0.1C7.4,2.8,7.2,2.9,7,3.1c-0.8,0.6-1.5,1.3-2.1,2
			C4.2,5.8,3.7,6.5,3.2,7.3C2.7,8,2.3,8.9,1.9,9.7c0,0.1,0,0.1-0.1,0.2c0,0.1,0,0.1-0.1,0.2c0,0,0,0.1,0,0.1
			c-0.1,0.2-0.1,0.3-0.2,0.5c0,0.1,0,0.2-0.1,0.2c0,0,0,0,0,0.1c0,0.2-0.1,0.3-0.1,0.5c0,0.1,0,0.1,0,0.2c0,0,0,0,0,0
			c-0.1,0.4-0.2,0.8-0.2,1.2C1.1,13.3,1,13.6,1,14v0c0,0.4,0,0.9,0,1.3c0,1.2,0.2,2.4,0.5,3.6c0,0,0,0,0,0c0.2-0.1,0.3-0.3,0.5-0.4
			c0.4-0.3,0.7-0.6,1.1-0.9l0.1-0.1c0,0,0,0,0,0c0-0.1-0.2-1.7-0.3-3.2c0-0.4,0-0.9,0-1.2l1-0.8l0,0c0.4-0.3,0.7-0.6,1.1-0.9
			c0.6-0.4,1.1-0.9,1.7-1.3c0.7-0.5,1.4-1,2.1-1.4l0,0l0.1,0l0,0l0.1-0.1l0,0.1c0,0.2,0,0.3,0,0.5c0,0.4,0,0.8,0,1.2l0,0v0.2h1.2
			v-0.1c0,0,0,0,0,0c0,0,0-0.1,0-0.1v-0.1h0c0-0.1,0-0.2,0-0.3c0-0.3,0-0.6,0-0.9c0-0.3,0-0.5,0-0.8c0,0,0,0,0-0.1c0,0,0,0,0,0
			l0-0.2l0.4-0.2l0,0c0.6-0.3,1.2-0.6,1.8-0.9c0.7-0.3,1.4-0.6,2.2-0.8c0.4-0.1,0.8-0.3,1.2-0.4c0.4-0.1,0.9-0.2,1.3-0.3
			c0,0,0,0,0,0c0.1,0,0.6-0.1,1.1-0.2c0,0,0,0,0,0C18.6,5,18.8,5,18.9,5c0.1,0,0.2,0,0.3-0.1c0,0-0.1,0-0.2,0
			C18.8,4.9,18.6,4.9,18.4,4.9z M10.3,4.1C10,4.5,9.9,5,9.7,5.5C9.6,6,9.5,6.5,9.5,7.1l0,0.1L9.3,7.2c-0.6,0.3-1.2,0.7-1.9,1
			C7,8.6,6.5,8.9,6.1,9.2c-0.6,0.4-1.2,0.9-1.8,1.4C4,10.8,3.8,11,3.5,11.2c0,0,0,0-0.1,0c0.2-1,0.6-1.9,1.1-2.8
			c0.8-1.4,1.8-2.7,3-3.8c1-0.9,2.2-1.6,3.5-2.1c0,0,0,0,0,0.1C10.7,3.1,10.5,3.6,10.3,4.1z"/>
		<path class="st2" d="M6.9,19.2c0.3-0.2,0.5-0.5,0.8-0.7c0,0,0,0,0,0l0,0l0.1-0.1L8,18.4l0,0c0,0,0,0,0,0c0.1,0,0.1,0.1,0.2,0.1
			c0.9,0.7,1.8,1.3,2.7,2c0.6,0.4,1.2,0.9,1.8,1.3c0.2,0.2,0.5,0.4,0.7,0.5c0,0,0.1,0,0.1,0.1l0,0l0.1,0.1L14,22
			c0.2-0.4,0.5-0.8,0.7-1.1c0.6-0.9,1.1-1.9,1.7-2.8c0.4-0.7,0.9-1.5,1.3-2.2c0.6-1,1.2-1.9,1.7-2.9c0.4-0.7,0.8-1.4,1.3-2.1
			c0.4-0.6,0.7-1.2,1.1-1.8c0.5-0.8,0.9-1.5,1.4-2.3l0.1-0.1l0.1-0.1l0,0l0.1,0.1l0.5,0.3c0.2,0.1,0.4,0.3,0.6,0.4
			c0.1,0,0.1,0.1,0.2,0.1l0.1-4l0-1.1c-0.4,0.1-0.7,0.2-1.1,0.3c-0.2,0-0.4,0.1-0.5,0.1l-3.8,1l2,1.4c-0.3,0.5-0.6,0.9-0.8,1.4
			c-0.3,0.5-0.6,1-0.9,1.5c-0.5,0.8-0.9,1.5-1.3,2.3c-0.2,0.4-0.5,0.8-0.7,1.2c-0.3,0.4-0.5,0.9-0.8,1.3c-0.2,0.4-0.5,0.8-0.7,1.2
			c-0.2,0.4-0.5,0.8-0.7,1.2c-0.2,0.4-0.4,0.7-0.7,1.1c-0.4,0.6-0.7,1.2-1.1,1.8c-0.2,0.3-0.3,0.6-0.5,0.9c0,0,0,0,0,0l-0.1,0.1
			l-0.1-0.1c0,0,0,0-0.1,0c-0.7-0.5-1.3-0.9-2-1.4c-0.7-0.5-1.3-0.9-2-1.4c-0.3-0.2-0.6-0.5-1-0.7c0,0,0,0,0,0c0,0,0,0,0,0l0,0l0,0
			l0,0l-0.1,0.1l0,0c0,0,0,0,0,0c-0.3,0.3-0.6,0.5-0.9,0.7C6,17,5.3,17.6,4.5,18.2c-0.4,0.3-0.8,0.7-1.3,1c-0.4,0.3-0.8,0.6-1.2,0.9
			c0,0-0.1,0-0.1,0.1l0,0c0.3,0.8,0.6,1.5,1,2.2c0,0,0,0,0.1,0c0,0,0.1-0.1,0.1-0.1l0,0c0.3-0.3,0.7-0.5,1-0.8
			C5.1,20.7,6,19.9,6.9,19.2z"/>
	</g>
	<g>
		<g>
			<path class="st2" d="M35.6,22h-1.2v1h1.4v0.3h-1.7v-2.7h1.7v0.3h-1.3v0.9h1.2V22z"/>
			<path class="st2" d="M36.9,20.5l0.9,2.2l0.9-2.2h0.5v2.7h-0.4v-1.1l0-1.1L38,23.2h-0.3L36.8,21l0,1.1v1.1h-0.4v-2.7H36.9z"/>
			<path class="st2" d="M40.4,22.2v1.1H40v-2.7h1c0.3,0,0.5,0.1,0.7,0.2c0.2,0.2,0.3,0.4,0.3,0.6c0,0.3-0.1,0.5-0.2,0.6
				s-0.4,0.2-0.7,0.2H40.4z M40.4,21.9H41c0.2,0,0.3,0,0.4-0.1c0.1-0.1,0.2-0.2,0.2-0.4c0-0.2-0.1-0.3-0.2-0.4
				c-0.1-0.1-0.2-0.1-0.4-0.2h-0.7V21.9z"/>
			<path class="st2" d="M44.7,22c0,0.3,0,0.5-0.1,0.7s-0.2,0.4-0.4,0.5c-0.2,0.1-0.4,0.2-0.6,0.2c-0.2,0-0.4-0.1-0.6-0.2
				c-0.2-0.1-0.3-0.3-0.4-0.4c-0.1-0.2-0.1-0.4-0.1-0.7v-0.2c0-0.3,0-0.5,0.1-0.7c0.1-0.2,0.2-0.4,0.4-0.5c0.2-0.1,0.4-0.2,0.6-0.2
				c0.2,0,0.4,0.1,0.6,0.2c0.2,0.1,0.3,0.3,0.4,0.5s0.1,0.4,0.1,0.7V22z M44.4,21.8c0-0.3-0.1-0.6-0.2-0.7c-0.1-0.2-0.3-0.3-0.5-0.3
				c-0.2,0-0.4,0.1-0.5,0.3c-0.1,0.2-0.2,0.4-0.2,0.7V22c0,0.3,0.1,0.6,0.2,0.7s0.3,0.3,0.5,0.3c0.2,0,0.4-0.1,0.5-0.3
				c0.1-0.2,0.2-0.4,0.2-0.7V21.8z"/>
			<path class="st2" d="M46.1,22.4l0.1,0.4l0.1-0.3l0.5-1.9H47l0.5,1.9l0.1,0.3l0.1-0.4l0.4-1.9h0.4l-0.7,2.7h-0.3l-0.6-2l0-0.2
				l0,0.2l-0.6,2h-0.3l-0.7-2.7h0.4L46.1,22.4z"/>
			<path class="st2" d="M50.6,22h-1.2v1h1.4v0.3h-1.7v-2.7h1.7v0.3h-1.3v0.9h1.2V22z"/>
			<path class="st2" d="M52.5,22.1h-0.6v1.1h-0.4v-2.7h0.9c0.3,0,0.5,0.1,0.7,0.2c0.2,0.1,0.2,0.3,0.2,0.6c0,0.2,0,0.3-0.1,0.4
				c-0.1,0.1-0.2,0.2-0.4,0.3l0.6,1.2v0h-0.4L52.5,22.1z M51.8,21.8h0.6c0.2,0,0.3,0,0.4-0.1c0.1-0.1,0.2-0.2,0.2-0.4
				c0-0.2-0.1-0.3-0.2-0.4c-0.1-0.1-0.2-0.1-0.4-0.1h-0.5V21.8z"/>
			<path class="st2" d="M54.4,23.2h-0.4v-2.7h0.4V23.2z"/>
			<path class="st2" d="M57.4,23.2H57l-1.4-2.1v2.1h-0.4v-2.7h0.4l1.4,2.1v-2.1h0.4V23.2z"/>
			<path class="st2" d="M60.3,22.9c-0.1,0.1-0.2,0.2-0.4,0.3c-0.2,0.1-0.4,0.1-0.6,0.1c-0.2,0-0.4-0.1-0.6-0.2
				c-0.2-0.1-0.3-0.3-0.4-0.4c-0.1-0.2-0.1-0.4-0.1-0.7v-0.2c0-0.4,0.1-0.7,0.3-1c0.2-0.2,0.5-0.3,0.8-0.3c0.3,0,0.5,0.1,0.7,0.2
				c0.2,0.1,0.3,0.4,0.3,0.6h-0.4c-0.1-0.4-0.3-0.5-0.6-0.5c-0.2,0-0.4,0.1-0.5,0.3c-0.1,0.2-0.2,0.4-0.2,0.7V22
				c0,0.3,0.1,0.5,0.2,0.7c0.1,0.2,0.3,0.3,0.6,0.3c0.1,0,0.3,0,0.4,0s0.2-0.1,0.3-0.2v-0.6h-0.6v-0.3h1V22.9z"/>
			<path class="st2" d="M62.9,21.9l0.7-1.4H64l-0.9,1.7v1h-0.4v-1l-0.9-1.7h0.4L62.9,21.9z"/>
			<path class="st2" d="M66.6,22c0,0.3,0,0.5-0.1,0.7c-0.1,0.2-0.2,0.4-0.4,0.5s-0.4,0.2-0.6,0.2c-0.2,0-0.4-0.1-0.6-0.2
				c-0.2-0.1-0.3-0.3-0.4-0.4c-0.1-0.2-0.1-0.4-0.1-0.7v-0.2c0-0.3,0-0.5,0.1-0.7c0.1-0.2,0.2-0.4,0.4-0.5c0.2-0.1,0.4-0.2,0.6-0.2
				c0.2,0,0.4,0.1,0.6,0.2c0.2,0.1,0.3,0.3,0.4,0.5c0.1,0.2,0.1,0.4,0.1,0.7V22z M66.3,21.8c0-0.3-0.1-0.6-0.2-0.7
				c-0.1-0.2-0.3-0.3-0.5-0.3c-0.2,0-0.4,0.1-0.5,0.3c-0.1,0.2-0.2,0.4-0.2,0.7V22c0,0.3,0.1,0.6,0.2,0.7c0.1,0.2,0.3,0.3,0.5,0.3
				c0.2,0,0.4-0.1,0.5-0.3c0.1-0.2,0.2-0.4,0.2-0.7V21.8z"/>
			<path class="st2" d="M69.3,20.5v1.8c0,0.3-0.1,0.5-0.2,0.6c-0.2,0.2-0.4,0.3-0.7,0.3l-0.1,0c-0.3,0-0.5-0.1-0.7-0.2
				c-0.2-0.2-0.3-0.4-0.3-0.7v-1.9h0.4v1.8c0,0.2,0.1,0.3,0.2,0.5s0.3,0.2,0.5,0.2c0.2,0,0.4-0.1,0.5-0.2c0.1-0.1,0.2-0.3,0.2-0.5
				v-1.8H69.3z"/>
			<path class="st2" d="M71.1,22.1h-0.6v1.1h-0.4v-2.7H71c0.3,0,0.5,0.1,0.7,0.2c0.2,0.1,0.2,0.3,0.2,0.6c0,0.2,0,0.3-0.1,0.4
				c-0.1,0.1-0.2,0.2-0.4,0.3l0.6,1.2v0h-0.4L71.1,22.1z M70.4,21.8H71c0.2,0,0.3,0,0.4-0.1c0.1-0.1,0.2-0.2,0.2-0.4
				c0-0.2-0.1-0.3-0.2-0.4s-0.2-0.1-0.4-0.1h-0.5V21.8z"/>
			<path class="st2" d="M75.2,22H74v1.2h-0.4v-2.7h1.7v0.3H74v0.9h1.1V22z"/>
			<path class="st2" d="M76.4,23.2H76v-2.7h0.4V23.2z"/>
			<path class="st2" d="M79.4,23.2H79l-1.4-2.1v2.1h-0.4v-2.7h0.4l1.4,2.1v-2.1h0.4V23.2z"/>
			<path class="st2" d="M81.7,22.5h-1.1l-0.3,0.7H80l1-2.7h0.3l1,2.7H82L81.7,22.5z M80.7,22.2h0.9L81.2,21L80.7,22.2z"/>
			<path class="st2" d="M85,23.2h-0.4l-1.4-2.1v2.1h-0.4v-2.7h0.4l1.4,2.1v-2.1H85V23.2z"/>
			<path class="st2" d="M87.9,22.4c0,0.3-0.1,0.5-0.3,0.7c-0.2,0.2-0.4,0.2-0.7,0.2c-0.3,0-0.6-0.1-0.8-0.3
				c-0.2-0.2-0.3-0.5-0.3-0.9v-0.3c0-0.3,0-0.5,0.1-0.7c0.1-0.2,0.2-0.3,0.4-0.4c0.2-0.1,0.4-0.2,0.6-0.2c0.3,0,0.5,0.1,0.7,0.2
				c0.2,0.2,0.3,0.4,0.3,0.7h-0.4c0-0.2-0.1-0.4-0.2-0.5c-0.1-0.1-0.2-0.1-0.4-0.1c-0.2,0-0.4,0.1-0.5,0.3c-0.1,0.2-0.2,0.4-0.2,0.7
				V22c0,0.3,0.1,0.5,0.2,0.7c0.1,0.2,0.3,0.3,0.5,0.3c0.2,0,0.4,0,0.5-0.1c0.1-0.1,0.2-0.2,0.2-0.5H87.9z"/>
			<path class="st2" d="M89,23.2h-0.4v-2.7H89V23.2z"/>
			<path class="st2" d="M91.4,22.5h-1.1L90,23.2h-0.4l1-2.7H91l1,2.7h-0.4L91.4,22.5z M90.3,22.2h0.9L90.8,21L90.3,22.2z"/>
			<path class="st2" d="M92.9,22.9h1.3v0.3h-1.6v-2.7h0.4V22.9z"/>
			<path class="st2" d="M97.4,22h-1.1v1.2h-0.4v-2.7h1.7v0.3h-1.3v0.9h1.1V22z"/>
			<path class="st2" d="M99.2,22.1h-0.6v1.1h-0.4v-2.7h0.9c0.3,0,0.5,0.1,0.7,0.2c0.2,0.1,0.2,0.3,0.2,0.6c0,0.2,0,0.3-0.1,0.4
				c-0.1,0.1-0.2,0.2-0.4,0.3l0.6,1.2v0h-0.4L99.2,22.1z M98.6,21.8h0.6c0.2,0,0.3,0,0.4-0.1c0.1-0.1,0.2-0.2,0.2-0.4
				c0-0.2-0.1-0.3-0.2-0.4s-0.2-0.1-0.4-0.1h-0.5V21.8z"/>
			<path class="st2" d="M102.3,22h-1.2v1h1.4v0.3h-1.7v-2.7h1.7v0.3h-1.3v0.9h1.2V22z"/>
			<path class="st2" d="M104.7,22h-1.2v1h1.4v0.3h-1.7v-2.7h1.7v0.3h-1.3v0.9h1.2V22z"/>
			<path class="st2" d="M105.6,23.2v-2.7h0.8c0.2,0,0.4,0.1,0.6,0.2c0.2,0.1,0.3,0.3,0.4,0.4c0.1,0.2,0.1,0.4,0.2,0.7V22
				c0,0.3,0,0.5-0.1,0.7c-0.1,0.2-0.2,0.3-0.4,0.4c-0.2,0.1-0.4,0.2-0.6,0.2H105.6z M105.9,20.8v2.1h0.4c0.3,0,0.5-0.1,0.6-0.3
				c0.2-0.2,0.2-0.4,0.2-0.7v-0.2c0-0.3-0.1-0.5-0.2-0.7c-0.1-0.2-0.4-0.3-0.6-0.3H105.9z"/>
			<path class="st2" d="M110.4,22c0,0.3,0,0.5-0.1,0.7s-0.2,0.4-0.4,0.5c-0.2,0.1-0.4,0.2-0.6,0.2c-0.2,0-0.4-0.1-0.6-0.2
				c-0.2-0.1-0.3-0.3-0.4-0.4c-0.1-0.2-0.1-0.4-0.1-0.7v-0.2c0-0.3,0-0.5,0.1-0.7c0.1-0.2,0.2-0.4,0.4-0.5c0.2-0.1,0.4-0.2,0.6-0.2
				c0.2,0,0.4,0.1,0.6,0.2c0.2,0.1,0.3,0.3,0.4,0.5s0.1,0.4,0.1,0.7V22z M110,21.8c0-0.3-0.1-0.6-0.2-0.7s-0.3-0.3-0.5-0.3
				c-0.2,0-0.4,0.1-0.5,0.3s-0.2,0.4-0.2,0.7V22c0,0.3,0.1,0.6,0.2,0.7c0.1,0.2,0.3,0.3,0.5,0.3c0.2,0,0.4-0.1,0.5-0.3
				c0.1-0.2,0.2-0.4,0.2-0.7V21.8z"/>
			<path class="st2" d="M111.6,20.5l0.9,2.2l0.9-2.2h0.5v2.7h-0.4v-1.1l0-1.1l-0.9,2.2h-0.3l-0.9-2.2l0,1.1v1.1h-0.4v-2.7H111.6z"/>
		</g>
		<g>
			<path class="st2" d="M34.1,17.3v-0.5c0.2,0,0.3,0,0.5,0c0.2,0,0.3-0.1,0.4-0.2c0.1-0.1,0.2-0.2,0.3-0.3c0.1-0.1,0.1-0.3,0.1-0.6
				V7.8c-0.2-0.2-0.4-0.4-0.7-0.4c-0.2-0.1-0.4-0.1-0.5-0.1V6.7H37l5.3,7.3V8.4c0-0.2-0.1-0.4-0.2-0.6c-0.1-0.1-0.2-0.3-0.4-0.3
				c-0.2-0.1-0.3-0.1-0.5-0.2c-0.2,0-0.4,0-0.5,0V6.7h3.5v0.5c-0.2,0-0.3,0-0.5,0c-0.2,0-0.3,0.1-0.4,0.2c-0.1,0.1-0.2,0.2-0.3,0.3
				c-0.1,0.1-0.1,0.3-0.1,0.6v8.9h-0.5l-6.4-8.9v7.3c0,0.2,0.1,0.4,0.2,0.6c0.1,0.1,0.2,0.3,0.4,0.3c0.2,0.1,0.3,0.1,0.5,0.2
				c0.2,0,0.4,0,0.5,0v0.5H34.1z"/>
			<path class="st2" d="M48.4,6.7v0.5c-0.3,0-0.5,0.1-0.7,0.2c-0.2,0.1-0.3,0.3-0.3,0.6v6c0,0.5,0,0.9,0.1,1.2
				c0.1,0.5,0.3,0.9,0.7,1.2c0.4,0.3,0.8,0.5,1.5,0.5c0.5,0,0.9-0.1,1.3-0.3c0.4-0.2,0.6-0.4,0.8-0.7c0.2-0.3,0.3-0.6,0.4-0.9
				c0.1-0.3,0.1-0.6,0.1-0.9V8.4c0-0.2-0.1-0.4-0.2-0.6c-0.1-0.1-0.2-0.3-0.4-0.3c-0.2-0.1-0.3-0.1-0.5-0.2c-0.2,0-0.4,0-0.5,0V6.7
				h3.3v0.5c-0.2,0-0.3,0-0.5,0c-0.1,0-0.3,0.1-0.4,0.2C53.1,7.5,53,7.6,53,7.8c-0.1,0.1-0.1,0.3-0.1,0.6v5.6c0,1.1-0.3,2-0.9,2.6
				c-0.6,0.6-1.5,0.9-2.6,0.9c-0.5,0-1-0.1-1.5-0.2c-0.5-0.1-0.8-0.3-1.2-0.6c-0.3-0.3-0.6-0.6-0.8-1c-0.2-0.4-0.3-0.9-0.3-1.4V8
				c0-0.3-0.1-0.5-0.3-0.6c-0.2-0.1-0.4-0.2-0.7-0.2V6.7H48.4z"/>
			<path class="st2" d="M54.6,7.2V6.7h4.3v0.5c-0.3,0-0.6,0.1-0.8,0.2C57.9,7.5,57.9,7.7,58,8l3,7.1l2.7-6.6
				c0.1-0.3,0.1-0.5,0.1-0.7c0-0.2-0.1-0.3-0.3-0.4c-0.2-0.1-0.3-0.1-0.6-0.2c-0.2,0-0.5,0-0.7,0V6.7h3.9v0.5
				c-0.3,0-0.6,0.1-0.9,0.3c-0.3,0.2-0.6,0.5-0.8,1l-3.8,8.8h-0.8L56,8c-0.1-0.2-0.2-0.4-0.3-0.5c-0.1-0.1-0.3-0.2-0.4-0.2
				c-0.1,0-0.3-0.1-0.4-0.1C54.7,7.2,54.6,7.2,54.6,7.2z"/>
			<path class="st2" d="M63.5,16.8c0.3,0,0.6-0.1,0.9-0.3c0.3-0.2,0.6-0.5,0.8-1L69,6.7h0.6l3.9,9.3c0.1,0.2,0.2,0.4,0.3,0.5
				c0.1,0.1,0.2,0.2,0.3,0.2c0.1,0,0.2,0.1,0.3,0.1c0.1,0,0.2,0,0.3,0v0.5h-4.1v-0.5c0.3,0,0.6-0.1,0.8-0.2c0.2-0.1,0.2-0.3,0.1-0.6
				l-1.2-2.8h-3.5l-0.9,2.3c-0.1,0.3-0.1,0.5-0.1,0.7c0,0.2,0.1,0.3,0.3,0.4c0.2,0.1,0.3,0.1,0.6,0.2c0.2,0,0.5,0,0.7,0v0.5h-3.9
				V16.8z M70,12.7l-1.5-3.6L67,12.7H70z"/>
			<path class="st2" d="M76.1,16V8c0-0.3-0.1-0.5-0.3-0.6c-0.2-0.1-0.4-0.2-0.7-0.2V6.7h2.8c0.2,0,0.5,0,0.7,0c0.3,0,0.6,0,0.9,0
				c0.3,0,0.6,0,0.9,0c0.3,0,0.6,0.1,0.8,0.1c0.6,0.2,1.1,0.5,1.5,1c0.3,0.5,0.5,1,0.5,1.7c0,0.5-0.1,0.9-0.3,1.3
				c-0.2,0.4-0.4,0.6-0.7,0.9c-0.3,0.2-0.7,0.4-1.1,0.5c-0.4,0.1-0.8,0.2-1.2,0.2c0.5,0,0.9,0.2,1.2,0.4c0.3,0.2,0.6,0.5,0.8,0.8
				c0.2,0.3,0.4,0.7,0.5,1.1s0.3,0.7,0.4,1c0.1,0.3,0.3,0.6,0.5,0.8c0.2,0.2,0.4,0.3,0.7,0.4v0.5h-1.8c-0.3,0-0.5-0.1-0.7-0.3
				c-0.2-0.2-0.4-0.4-0.5-0.7c-0.1-0.3-0.3-0.6-0.3-0.9c-0.1-0.3-0.2-0.7-0.3-1c-0.1-0.3-0.2-0.7-0.4-1c-0.1-0.3-0.3-0.5-0.6-0.7
				c-0.3-0.2-0.8-0.4-1.4-0.4V16c0,0.3,0.1,0.5,0.2,0.6s0.3,0.2,0.6,0.2v0.5h-3.6v-0.5c0.3,0,0.5-0.1,0.7-0.2
				C76,16.5,76.1,16.3,76.1,16z M77.9,7.2v4.7c0.4,0,0.8,0,1.2,0c0.4,0,0.7-0.1,0.9-0.2c0.2-0.1,0.4-0.2,0.6-0.4
				c0.2-0.2,0.3-0.3,0.4-0.5c0.1-0.2,0.2-0.4,0.2-0.6c0-0.2,0.1-0.4,0.1-0.6c0-0.2,0-0.4-0.1-0.6c0-0.2-0.1-0.4-0.2-0.6
				c-0.1-0.2-0.2-0.4-0.4-0.5c-0.2-0.2-0.3-0.3-0.6-0.4c-0.2-0.1-0.6-0.2-0.9-0.2C78.7,7.2,78.4,7.2,77.9,7.2z"/>
			<path class="st2" d="M85.3,16V8c0-0.3-0.1-0.5-0.3-0.6c-0.2-0.1-0.4-0.2-0.7-0.2V6.7h7.7l0.7,3.2l-0.5,0
				c-0.1-0.1-0.1-0.3-0.2-0.5c-0.1-0.2-0.2-0.4-0.3-0.6c-0.1-0.2-0.2-0.4-0.4-0.6c-0.1-0.2-0.3-0.4-0.5-0.5
				c-0.2-0.2-0.5-0.3-0.7-0.4c-0.3-0.1-0.6-0.1-1-0.1h-2.1v4.7l1.8,0c0.4,0,0.7,0,1-0.1c0.3-0.1,0.5-0.2,0.6-0.3
				c0.1-0.1,0.2-0.3,0.3-0.5c0.1-0.2,0.1-0.4,0.1-0.6h0.5v3.3h-0.5c0-0.2,0-0.4-0.1-0.6c-0.1-0.2-0.2-0.3-0.3-0.4
				c-0.1-0.1-0.3-0.2-0.6-0.2c-0.3,0-0.6-0.1-1-0.1l-1.8,0v4.4H90c0.5,0,0.9-0.1,1.2-0.3s0.6-0.5,0.8-0.8c0.2-0.3,0.3-0.6,0.5-0.9
				c0.1-0.3,0.2-0.6,0.3-0.8l0.5,0l-0.7,3.2h-8.2v-0.5c0.3,0,0.5-0.1,0.7-0.2C85.2,16.5,85.3,16.3,85.3,16z"/>
			<path class="st2" d="M94.6,16V8c0-0.3-0.1-0.5-0.3-0.6c-0.2-0.1-0.4-0.2-0.7-0.2V6.7h7.7l0.7,3.2l-0.5,0
				c-0.1-0.1-0.1-0.3-0.2-0.5c-0.1-0.2-0.2-0.4-0.3-0.6c-0.1-0.2-0.2-0.4-0.4-0.6c-0.1-0.2-0.3-0.4-0.5-0.5
				c-0.2-0.2-0.5-0.3-0.7-0.4c-0.3-0.1-0.6-0.1-1-0.1h-2.1v4.7l1.8,0c0.4,0,0.7,0,1-0.1c0.3-0.1,0.5-0.2,0.6-0.3s0.2-0.3,0.3-0.5
				c0.1-0.2,0.1-0.4,0.1-0.6h0.5v3.3h-0.5c0-0.2,0-0.4-0.1-0.6c-0.1-0.2-0.2-0.3-0.3-0.4c-0.1-0.1-0.3-0.2-0.6-0.2
				c-0.3,0-0.6-0.1-1-0.1l-1.8,0v4.4h2.8c0.5,0,0.9-0.1,1.2-0.3s0.6-0.5,0.8-0.8c0.2-0.3,0.3-0.6,0.5-0.9c0.1-0.3,0.2-0.6,0.3-0.8
				l0.5,0l-0.7,3.2h-8.2v-0.5c0.3,0,0.5-0.1,0.7-0.2C94.5,16.5,94.6,16.3,94.6,16z"/>
			<path class="st2" d="M102.8,16.8c0.3,0,0.6-0.1,0.9-0.3c0.3-0.2,0.6-0.4,0.9-0.8l2.7-3.7l-2.8-4c-0.2-0.2-0.4-0.5-0.6-0.6
				c-0.3-0.2-0.5-0.3-0.8-0.3V6.7h4.5v0.5c-0.4,0-0.7,0.1-0.8,0.2c-0.2,0.1-0.1,0.4,0.1,0.7l2.1,3l2.1-2.9c0.1-0.1,0.1-0.2,0.1-0.3
				c0-0.1,0-0.2-0.1-0.3c-0.1-0.1-0.1-0.2-0.3-0.3c-0.1-0.1-0.3-0.1-0.6-0.1V6.7h3.3v0.5c-0.3,0-0.6,0.1-0.9,0.3
				c-0.3,0.2-0.7,0.5-0.9,0.9l-2.4,3.1l3.2,4.4c0.2,0.2,0.4,0.5,0.6,0.6c0.3,0.2,0.5,0.3,0.8,0.3v0.5h-4.5v-0.5
				c0.4,0,0.7-0.1,0.8-0.2c0.2-0.1,0.1-0.4-0.1-0.7l-2.5-3.5l-2.4,3.4c-0.2,0.2-0.2,0.5,0,0.6c0.2,0.2,0.6,0.3,1.2,0.3v0.5h-3.6
				V16.8z"/>
		</g>
	</g>
</g>
</svg>
